<svg id="Layer_1" data-name="Layer 1" xmlns="http://www.w3.org/2000/svg" viewBox="0 0 138.32 42"><defs><style>.cls-1,.cls-4{fill:#005baa;}.cls-2,.cls-5{fill:#ed1c24;}.cls-3{fill:#009edb;}.cls-4,.cls-5{fill-rule:evenodd;}</style></defs><path class="cls-1" d="M30.18,13.68l-4,4-.2.2-1.27,1.27-.94.95-1.27,1.27-.2.19-.55.56-.2.19h0l-1.87,1.87h0l-.2.19a8.4,8.4,0,0,1-1.84,1.39,7.83,7.83,0,0,1-1,.47,8.07,8.07,0,0,1-2.42.53,8.47,8.47,0,0,1-1.51,0,8.17,8.17,0,0,1-3.12-1,5.52,5.52,0,0,1-1.2-.84h0l-.23-.23L.87,17.33l-.15-.15a2.61,2.61,0,0,1-.34-.46A2.74,2.74,0,0,1,0,15.32a1.69,1.69,0,0,1,0-.23c0-.12,0-.24,0-.35l0-.13,0,0a2.8,2.8,0,0,1,.5-1,2.09,2.09,0,0,1,.2-.22l.13-.13L8.68,5.51h0L13.38.82A2.79,2.79,0,0,1,17.19.69Z"/><path class="cls-2" d="M16.05,31.12a4.36,4.36,0,0,1-1.83-.41l-1.49-1.48-.37-.36-.06-.07-.69-.69L8.14,24.6l.23.23a5.52,5.52,0,0,0,1.21.85,8.17,8.17,0,0,0,3.12,1,8.47,8.47,0,0,0,1.51,0,8.07,8.07,0,0,0,2.42-.53,7.83,7.83,0,0,0,1-.47,8.4,8.4,0,0,0,1.84-1.39l.2-.19h0l1.87-1.87h0l.2-.19.55-.56.2-.19,1.27-1.27.94-.95L26,17.87l.2-.2,8.05-8L37.55,6l0,0,.18-.17a2.6,2.6,0,0,1,3.67,0l1.82,1.82h0l.06,0a3,3,0,0,0-2.22.85l-6.15,6-.06.07L24.17,25.21h0l-3.95,3.87,0,0-.24.25a7,7,0,0,1-1.83,1.28,5,5,0,0,1-1.18.4,4.45,4.45,0,0,1-.71.09Z"/><path class="cls-2" d="M53.08,21.17l-.2.2-8.71,8.84L35,39.5a7.54,7.54,0,0,1-.92.79l0,0-.13.09h0a8.43,8.43,0,0,1-10.71-.75h0L23,39.49l-1.57-1.57L17,33.49,15.52,32l-.2-.21a4.37,4.37,0,0,0,.72.06h.21a4.83,4.83,0,0,0,.84-.11,5.39,5.39,0,0,0,1.35-.46,7.86,7.86,0,0,0,2-1.42l.27-.29,3.4-3.34h0l11.69-11.5.06-.08L41.6,9.09a2.27,2.27,0,0,1,2.83-.25l1.34,1.35h0l7.3,7.31a1.71,1.71,0,0,1,.18.2A2.59,2.59,0,0,1,53.08,21.17Z"/><path class="cls-3" d="M24.86,11.49a.56.56,0,0,1-.76,0A8.87,8.87,0,1,0,11.51,24l2.7,2.72a.21.21,0,0,1,0,.06h0a8,8,0,0,1-1.47,0l-2-2a9.93,9.93,0,0,1,14.1-14h0A.53.53,0,0,1,24.86,11.49Z"/><path class="cls-3" d="M29,14.89l-.75.74-1.31-1.32a.53.53,0,0,1,0-.75.53.53,0,0,1,.75,0Z"/><path class="cls-3" d="M17.68,25.74l0,0a7.4,7.4,0,0,1-1,.46L13,22.52a6.8,6.8,0,0,1-.78-8.64.54.54,0,0,1,.74-.14.53.53,0,0,1,.13.74,5.74,5.74,0,0,0,.66,7.29Z"/><path class="cls-3" d="M26.76,17.1l0,0-.55.55-.18.18-4.13-4.17A5.74,5.74,0,0,0,16,12.27a.53.53,0,1,1-.33-1,6.77,6.77,0,0,1,6.93,1.68Z"/><path class="cls-3" d="M24.55,19.32l-.75.75-4.15-4.18A2.6,2.6,0,0,0,16,19.56l2.67,2.69a.53.53,0,0,1-.75.75L15.2,20.31a3.67,3.67,0,0,1,5.21-5.16Z"/><path class="cls-3" d="M22.33,21.53l0,0-.55.56-.18.17L17.43,18.1a.53.53,0,0,1,.75-.75Z"/><path class="cls-4" d="M126.68,21.3l-6.18-8.86-.62-.57H126l4.13,6.69.33-.27,2.49-3.71a1.94,1.94,0,0,0-.34-2.71h5.75l-6.65,9.42v6.84l1.17,1.4H125.7l1-1.38c0-2.27-.08-4.58,0-6.85Zm-16.77-9.43a2.54,2.54,0,0,1,.7,1.51,2.08,2.08,0,0,1-.13,1l-4.59,13.32a5,5,0,0,1-1.31,1.74h5a2,2,0,0,1-.7-1.19,1.88,1.88,0,0,1,0-1l1-3.16h5.83l.91,2.44a2.8,2.8,0,0,1,.17.76,2.3,2.3,0,0,1-.93,2.19h7.85a7.2,7.2,0,0,1-1.87-2.28l-5.74-15.38Zm5,10h-4.17l2-5.76,2.15,5.76ZM94,11.88h8.75a4.8,4.8,0,0,1,4.79,4.79v.59A4.8,4.8,0,0,1,102.77,22l-2.19.07a4.48,4.48,0,0,0,2.27-4.69c-.17-1.48-.93-2.9-2.2-2.93h-.8V27.56a1,1,0,0,0,.18.59,9,9,0,0,0,.8,1.07l.23.28h-6.8l.29-.39a4.33,4.33,0,0,0,.53-.91,1.38,1.38,0,0,0,.13-.6V13.49C95.18,12.75,94.45,12.33,94,11.88Z"/><path class="cls-5" d="M57.15,11.79h5.49L67.25,25l3.91-10.94a1.24,1.24,0,0,0-.16-.93c-.21-.45-.44-.88-.66-1.32h4.1c-.24.89-.6,1.87-.91,2.77L68.23,30a8.68,8.68,0,0,1-4.3-2,7.45,7.45,0,0,1-1.73-3.11L57.77,13.1a10.45,10.45,0,0,0-.62-1.31ZM79.07,18v9.44c0,.38.09.45.33.76l1.08,1.41H75.31l.87-1.33a1.4,1.4,0,0,0,.32-.92V14.15l-1.45-2.36h5.36L89.08,23v-8.9a1.43,1.43,0,0,0-.31-.93c-.29-.45-.6-.88-.89-1.32H93L92,13.22c-.24.3-.33.37-.33.76V30a7.31,7.31,0,0,1-5.39-2.81Z"/><path class="cls-3" d="M62.64,35.56c0,.7.3,1.07,1.07,1.07a2.5,2.5,0,0,0,.88-.16c.14-.06.18,0,.18.13v.08c0,.12,0,.17-.18.24a2.19,2.19,0,0,1-.87.15c-1.06,0-1.56-.47-1.56-1.51v-1A1.38,1.38,0,0,1,63.71,33a2.42,2.42,0,0,1,.85.16c.14.05.17.11.17.23v.08c0,.15-.06.19-.19.14a2.11,2.11,0,0,0-.85-.17c-.74,0-1,.36-1,1.14Z"/><path class="cls-3" d="M63.72,37.08c-1.07,0-1.57-.49-1.57-1.52v-1A1.38,1.38,0,0,1,63.71,33a2.42,2.42,0,0,1,.85.16c.15.06.18.12.18.24v.08c0,.08,0,.13,0,.15s-.08,0-.15,0a2.3,2.3,0,0,0-.85-.16c-.72,0-1,.35-1,1.13v1c0,.73.32,1.06,1.06,1.06a2.28,2.28,0,0,0,.87-.16c.08,0,.12,0,.15,0s0,.07,0,.15v.08c0,.13,0,.18-.18.24A2,2,0,0,1,63.72,37.08Zm0-4.07a1.37,1.37,0,0,0-1.55,1.57v1c0,1,.5,1.5,1.56,1.5a1.92,1.92,0,0,0,.86-.15c.15-.06.18-.11.18-.23V36.6c0-.08,0-.12,0-.14s-.06,0-.13,0a2.33,2.33,0,0,1-.88.16c-.74,0-1.08-.33-1.08-1.07v-1c0-.79.33-1.14,1.06-1.14a2.2,2.2,0,0,1,.86.16c.06,0,.1,0,.13,0a.17.17,0,0,0,0-.14v-.08c0-.11,0-.17-.18-.23A2.32,2.32,0,0,0,63.71,33Z"/><path class="cls-3" d="M65.42,33c0-.17,0-.2.19-.2h.07c.16,0,.19,0,.19.2v1.41a1.08,1.08,0,0,1,1-.41C67.58,34,68,34.3,68,35v1.8c0,.16,0,.19-.19.19h-.08c-.16,0-.19,0-.19-.19V35.07c0-.48-.21-.69-.78-.69s-.84.23-.84.79v1.65c0,.16,0,.19-.19.19h-.07c-.15,0-.19,0-.19-.19Z"/><path class="cls-3" d="M67.76,37h-.08c-.16,0-.19,0-.19-.2V35.07c0-.49-.23-.68-.78-.68s-.83.23-.83.78v1.65c0,.16,0,.2-.2.2h-.07c-.16,0-.2,0-.2-.2V33c0-.18,0-.21.2-.21h.07c.16,0,.2,0,.2.21v1.39a1.08,1.08,0,0,1,1-.4c.75,0,1.13.36,1.13,1.08v1.8C68,37,67.93,37,67.76,37Zm-1.05-2.65c.56,0,.79.21.79.7v1.75c0,.16,0,.18.18.18h.08c.16,0,.19,0,.19-.18V35c0-.71-.38-1.06-1.12-1.06a1,1,0,0,0-1,.41h0V33c0-.16,0-.19-.18-.19h-.07c-.15,0-.19,0-.19.19v3.87c0,.16,0,.18.19.18h.07c.16,0,.18,0,.18-.18V35.17C65.86,34.61,66.12,34.37,66.71,34.37Z"/><path class="cls-3" d="M68.6,35.79v-.56c0-.85.45-1.28,1.34-1.28s1.33.44,1.33,1.28v.56c0,.86-.44,1.28-1.33,1.28S68.6,36.63,68.6,35.79Zm2.21-.56c0-.59-.21-.85-.87-.85s-.88.26-.88.85v.56c0,.59.22.85.88.85s.87-.26.87-.85Z"/><path class="cls-3" d="M69.94,37.08c-.92,0-1.34-.41-1.34-1.29v-.56a1.31,1.31,0,0,1,.33-1,1.44,1.44,0,0,1,1-.32c.91,0,1.33.41,1.33,1.29v.56A1.16,1.16,0,0,1,69.94,37.08Zm0-3.12a1.41,1.41,0,0,0-1,.31,1.27,1.27,0,0,0-.33,1v.56c0,.87.42,1.27,1.33,1.27a1.38,1.38,0,0,0,1-.31,1.27,1.27,0,0,0,.33-1v-.56C71.26,34.36,70.84,34,69.94,34Zm0,2.69c-.64,0-.89-.24-.89-.86v-.56c0-.62.24-.86.89-.86s.88.24.88.86v.56C70.82,36.42,70.58,36.65,69.94,36.65Zm0-2.26c-.64,0-.87.22-.87.84v.56c0,.61.24.84.87.84s.87-.22.87-.84v-.56C70.81,34.61,70.57,34.39,69.94,34.39Z"/><path class="cls-3" d="M73.48,35.21c0-.8.43-1.26,1.36-1.26a1.48,1.48,0,0,1,.53.08c.15,0,.19.09.19.23v.06c0,.15,0,.2-.19.15a1.42,1.42,0,0,0-.52-.09c-.68,0-.91.27-.91.84v.59c0,.61.27.83,1,.83a1.5,1.5,0,0,0,.54-.08c.14-.05.18,0,.18.15v.06c0,.13,0,.18-.19.22a1.71,1.71,0,0,1-.57.08c-.93,0-1.37-.4-1.37-1.26Z"/><path class="cls-3" d="M74.85,37.08a1.49,1.49,0,0,1-1-.31,1.26,1.26,0,0,1-.34-1v-.6a1.23,1.23,0,0,1,.34-.93,1.39,1.39,0,0,1,1-.34,1.69,1.69,0,0,1,.53.08c.16,0,.19.1.19.24v.06c0,.09,0,.14,0,.16a.16.16,0,0,1-.15,0,1.72,1.72,0,0,0-.52-.08c-.65,0-.91.24-.91.83v.59c0,.6.26.82,1,.82a1.46,1.46,0,0,0,.54-.08c.07,0,.11,0,.14,0s.05.07.05.16v.06c0,.14,0,.19-.2.23A1.91,1.91,0,0,1,74.85,37.08Zm0-3.12c-.89,0-1.35.43-1.35,1.25v.6c0,.86.43,1.25,1.36,1.25a2,2,0,0,0,.57-.07c.15,0,.19-.09.19-.22v-.06c0-.08,0-.13,0-.15s-.07,0-.13,0a1.82,1.82,0,0,1-.55.08c-.69,0-1-.24-1-.84v-.59c0-.6.27-.85.92-.85a1.46,1.46,0,0,1,.52.09c.07,0,.11,0,.14,0s0-.07,0-.15v-.06c0-.13,0-.18-.18-.23A1.74,1.74,0,0,0,74.84,34Z"/><path class="cls-3" d="M76.5,35.93c0,.48.2.71.81.71s.81-.22.81-.71V34.2c0-.15,0-.19.2-.19h.06c.17,0,.2,0,.2.19v1.73c0,.74-.37,1.14-1.27,1.14S76,36.69,76,35.93V34.2c0-.15,0-.19.2-.19h.06c.17,0,.2,0,.2.19Z"/><path class="cls-3" d="M77.31,37.08c-.84,0-1.27-.39-1.27-1.15V34.2c0-.15,0-.2.19-.2h.07c.17,0,.2,0,.2.2v1.73c0,.51.23.7.81.7s.8-.19.8-.7V34.2c0-.15,0-.2.21-.2h.06c.18,0,.2,0,.2.2v1.73a1.1,1.1,0,0,1-.29.85A1.39,1.39,0,0,1,77.31,37.08ZM76.23,34c-.14,0-.18,0-.18.18v1.73a1.07,1.07,0,0,0,.31.85,1.38,1.38,0,0,0,1,.28,1.36,1.36,0,0,0,1-.29,1.07,1.07,0,0,0,.29-.84V34.2c0-.14,0-.18-.19-.18h-.06c-.15,0-.19,0-.19.18v1.73c0,.52-.23.72-.82.72s-.82-.2-.82-.72V34.2c0-.14,0-.18-.19-.18Z"/><path class="cls-3" d="M79.19,35.79v-.56c0-.85.44-1.28,1.34-1.28s1.32.44,1.32,1.28v.56c0,.86-.44,1.28-1.32,1.28S79.19,36.63,79.19,35.79Zm2.21-.56c0-.59-.21-.85-.87-.85s-.89.26-.89.85v.56c0,.59.23.85.89.85s.87-.26.87-.85Zm-1.3-2.08c.14-.22.23-.3.43-.3s.28.06.43.3l.23.36c.07.11,0,.14-.08.14h0a.23.23,0,0,1-.25-.14l-.14-.24c-.09-.17-.19-.17-.29,0l-.13.24a.24.24,0,0,1-.25.14h-.06c-.12,0-.14,0-.07-.14Zm.22,4.46a.3.3,0,1,1,0,.43A.3.3,0,0,1,80.32,37.61Z"/><path class="cls-3" d="M80.53,38.13a.31.31,0,0,1-.3-.3.29.29,0,0,1,.09-.22h0a.27.27,0,0,1,.21-.09.31.31,0,0,1,.31.31.27.27,0,0,1-.09.21A.31.31,0,0,1,80.53,38.13Zm0-.6a.29.29,0,0,0-.21.09h0a.3.3,0,0,0-.08.21.32.32,0,0,0,.08.21.31.31,0,0,0,.42,0,.29.29,0,0,0,.09-.21.31.31,0,0,0-.3-.3Zm0-.45c-.92,0-1.35-.41-1.35-1.29v-.56a1.31,1.31,0,0,1,.34-1,1.42,1.42,0,0,1,1-.32c.91,0,1.33.41,1.33,1.29v.56A1.16,1.16,0,0,1,80.53,37.08Zm0-3.12a1.39,1.39,0,0,0-1,.31,1.27,1.27,0,0,0-.33,1v.56c0,.87.42,1.27,1.33,1.27a1.4,1.4,0,0,0,1-.31,1.27,1.27,0,0,0,.33-1v-.56C81.85,34.36,81.43,34,80.53,34Zm0,2.69c-.64,0-.89-.24-.89-.86v-.56c0-.62.24-.86.89-.86s.87.24.87.86v.56C81.4,36.42,81.17,36.65,80.53,36.65Zm0-2.26c-.64,0-.88.22-.88.84v.56c0,.61.25.84.88.84s.86-.22.86-.84v-.56C81.39,34.61,81.16,34.39,80.53,34.39Zm.58-.73h0a.23.23,0,0,1-.25-.15l-.14-.23c0-.09-.1-.13-.14-.13h0s-.1,0-.14.13l-.14.23a.23.23,0,0,1-.25.15h-.06c-.07,0-.1,0-.11,0s0-.06,0-.11l.23-.36c.15-.22.23-.3.44-.3s.28.06.43.3l.23.36c0,.05.06.09,0,.11S81.18,33.66,81.11,33.66Zm-.58-.52h0s.1,0,.15.13l.14.24a.22.22,0,0,0,.24.14h0c.07,0,.1,0,.11,0s0,0,0-.1L81,33.16c-.14-.24-.23-.3-.42-.3s-.28.07-.43.3l-.23.36s0,.08,0,.1,0,0,.1,0H80a.24.24,0,0,0,.24-.14l.14-.24C80.43,33.18,80.48,33.14,80.53,33.14Z"/><path class="cls-3" d="M82.44,35.21c0-.8.43-1.26,1.36-1.26a1.48,1.48,0,0,1,.53.08c.15,0,.19.09.19.23v.06c0,.15,0,.2-.19.15a1.38,1.38,0,0,0-.52-.09c-.68,0-.91.27-.91.84v.59c0,.61.27.83.95.83a1.59,1.59,0,0,0,.55-.08c.14-.05.18,0,.18.15v.06c0,.13,0,.18-.2.22a1.65,1.65,0,0,1-.56.08c-.94,0-1.38-.4-1.38-1.26Z"/><path class="cls-3" d="M83.82,37.08a1.45,1.45,0,0,1-1-.31,1.22,1.22,0,0,1-.34-1v-.6a1.23,1.23,0,0,1,.33-.93,1.39,1.39,0,0,1,1-.34,1.8,1.8,0,0,1,.54.08c.15,0,.18.1.18.24v.06c0,.09,0,.14,0,.16a.16.16,0,0,1-.15,0,1.72,1.72,0,0,0-.52-.08c-.64,0-.91.24-.91.83v.59c0,.6.26.82.95.82a1.46,1.46,0,0,0,.54-.08.19.19,0,0,1,.15,0s0,.07,0,.16v.06c0,.14,0,.19-.19.23A2,2,0,0,1,83.82,37.08Zm0-3.12c-.88,0-1.35.43-1.35,1.25v.6c0,.86.43,1.25,1.37,1.25a2,2,0,0,0,.56-.07c.15,0,.19-.09.19-.22v-.06c0-.08,0-.13,0-.15s-.07,0-.13,0a1.82,1.82,0,0,1-.55.08c-.69,0-1-.24-1-.84v-.59c0-.6.27-.85.92-.85a1.51,1.51,0,0,1,.53.09c.07,0,.11,0,.13,0s0-.07,0-.15v-.06c0-.13,0-.18-.18-.23A1.7,1.7,0,0,0,83.8,34Z"/><path class="cls-3" d="M86.59,36.68c0-.15,0-.19.2-.16a3.24,3.24,0,0,0,.89.13c.47,0,.66-.09.66-.35s-.1-.3-.39-.44l-.74-.35c-.39-.19-.57-.37-.57-.79S87,34,87.72,34a2.58,2.58,0,0,1,.76.11c.14,0,.18.09.18.23v.06c0,.15,0,.18-.19.14a2.41,2.41,0,0,0-.76-.11c-.45,0-.62.09-.62.34s.11.3.32.4l.78.35c.41.2.61.38.61.82s-.37.78-1.15.78a3.12,3.12,0,0,1-.86-.11c-.16-.05-.2-.1-.2-.23Z"/><path class="cls-3" d="M87.65,37.08a3.15,3.15,0,0,1-.87-.12c-.15,0-.19-.09-.19-.23v0c0-.08,0-.13,0-.15s.08,0,.16,0a3.35,3.35,0,0,0,.89.12c.48,0,.66-.09.66-.34s-.09-.29-.39-.43l-.75-.36c-.37-.18-.57-.36-.57-.79s.35-.78,1.09-.78a2.2,2.2,0,0,1,.76.12c.15,0,.19.09.19.23v.06a.21.21,0,0,1,0,.15.21.21,0,0,1-.16,0,2.23,2.23,0,0,0-.75-.12c-.44,0-.61.1-.61.34a.43.43,0,0,0,.31.39l.78.36c.4.18.61.37.61.82S88.43,37.08,87.65,37.08Zm-1-.56-.06,0s0,.07,0,.14v0c0,.13,0,.18.19.22a3,3,0,0,0,.86.11c.79,0,1.14-.23,1.14-.77s-.21-.63-.6-.81l-.78-.36a.44.44,0,0,1-.33-.4c0-.25.18-.35.63-.35a2.33,2.33,0,0,1,.76.12c.07,0,.11,0,.14,0a.18.18,0,0,0,0-.14v-.06c0-.14,0-.17-.18-.22a2.29,2.29,0,0,0-.76-.11c-.73,0-1.07.24-1.07.76s.19.6.56.78l.74.36c.3.14.4.25.4.44s-.18.35-.67.35a3.48,3.48,0,0,1-.9-.12Z"/><path class="cls-3" d="M89.38,35.79v-.56c0-.85.45-1.28,1.34-1.28s1.33.44,1.33,1.28v.56c0,.86-.44,1.28-1.33,1.28S89.38,36.63,89.38,35.79Zm2.21-.56c0-.59-.2-.85-.87-.85s-.88.26-.88.85v.56c0,.59.22.85.88.85s.87-.26.87-.85Zm-1.3-2.08c.15-.22.23-.3.43-.3s.29.06.43.3l.24.36c.07.11,0,.14-.08.14h0a.23.23,0,0,1-.25-.14l-.14-.24c-.1-.17-.2-.17-.29,0l-.14.24c-.06.12-.12.14-.25.14h0c-.13,0-.15,0-.08-.14Zm1.55-.36a.27.27,0,0,1-.26.14h-.06c-.14,0-.16,0-.09-.15l.25-.49a.28.28,0,0,1,.31-.18h.06c.16,0,.19,0,.1.17Z"/><path class="cls-3" d="M90.72,37.08c-.91,0-1.34-.41-1.34-1.29v-.56a1.31,1.31,0,0,1,.33-1,1.46,1.46,0,0,1,1-.32c.91,0,1.34.41,1.34,1.29v.56C92.06,36.65,91.61,37.08,90.72,37.08Zm0-3.12a1.41,1.41,0,0,0-1,.31,1.27,1.27,0,0,0-.33,1v.56c0,.87.42,1.27,1.33,1.27a1.38,1.38,0,0,0,1-.31,1.27,1.27,0,0,0,.33-1v-.56C92,34.36,91.62,34,90.72,34Zm0,2.69c-.64,0-.89-.24-.89-.86v-.56c0-.62.24-.86.89-.86s.88.24.88.86v.56C91.6,36.42,91.36,36.65,90.72,36.65Zm0-2.26c-.64,0-.87.22-.87.84v.56c0,.61.24.84.87.84s.87-.22.87-.84v-.56C91.59,34.61,91.35,34.39,90.72,34.39Zm.59-.73h0a.24.24,0,0,1-.26-.15l-.14-.23c-.09-.17-.18-.17-.28,0l-.13.23a.24.24,0,0,1-.26.15h0c-.07,0-.11,0-.12,0s0-.06,0-.11l.23-.36c.14-.22.23-.3.43-.3s.29.06.44.3l.23.36c0,.05,0,.09,0,.11S91.38,33.66,91.31,33.66Zm-.59-.52s.1,0,.15.13l.14.24a.24.24,0,0,0,.25.14h0c.06,0,.1,0,.11,0s0,0,0-.1l-.23-.36c-.15-.24-.23-.3-.43-.3s-.28.07-.42.3l-.23.36s0,.08,0,.1,0,0,.11,0h0a.25.25,0,0,0,.25-.14l.13-.24C90.62,33.18,90.67,33.14,90.72,33.14Zm.86-.2h-.06c-.08,0-.12,0-.13,0a.18.18,0,0,1,0-.13l.26-.49A.28.28,0,0,1,92,32.1h.06c.09,0,.14,0,.15,0s0,.07,0,.15l-.3.5A.31.31,0,0,1,91.58,32.94Zm.41-.83a.28.28,0,0,0-.3.18l-.26.49c0,.07,0,.1,0,.12s0,0,.12,0h.06a.29.29,0,0,0,.26-.15l.3-.5c0-.07.06-.11,0-.13s-.06,0-.14,0Z"/><path class="cls-3" d="M93.15,36.82c0,.16,0,.19-.19.19h-.07c-.15,0-.2,0-.2-.19V35.09c0-.76.43-1.14,1.28-1.14s1.26.4,1.26,1.14v1.73c0,.16,0,.19-.19.19H95c-.17,0-.2,0-.2-.19V35.09c0-.49-.19-.71-.8-.71s-.82.23-.82.71Z"/><path class="cls-3" d="M95,37H95c-.17,0-.21,0-.21-.2V35.09c0-.51-.21-.7-.79-.7s-.81.19-.81.7v1.73c0,.16,0,.2-.2.2h-.07c-.15,0-.2,0-.2-.2V35.09c0-.76.43-1.15,1.28-1.15a1.36,1.36,0,0,1,1,.3,1.11,1.11,0,0,1,.3.85v1.73C95.24,37,95.21,37,95,37ZM94,34.37c.59,0,.81.2.81.72v1.73c0,.16,0,.18.19.18H95c.16,0,.19,0,.19-.18V35.09a1.08,1.08,0,0,0-.3-.84A1.33,1.33,0,0,0,94,34a1.38,1.38,0,0,0-1,.28,1.09,1.09,0,0,0-.32.85v1.73c0,.16,0,.18.19.18H93c.16,0,.19,0,.19-.18V35.09C93.15,34.57,93.38,34.37,94,34.37Z"/><path class="cls-3" d="M98.39,35.08c0,.7-.41,1.06-1.26,1.06a2.94,2.94,0,0,0-.64,0,.18.18,0,0,0-.15.19c0,.08,0,.14.16.17a4.07,4.07,0,0,0,.63,0,2,2,0,0,1,1,.19.7.7,0,0,1,.3.65.82.82,0,0,1-.3.72,1.86,1.86,0,0,1-1,.21,1.92,1.92,0,0,1-1-.21.73.73,0,0,1-.29-.64.71.71,0,0,1,.35-.65.4.4,0,0,1-.25-.4c0-.27.16-.43.49-.48a.85.85,0,0,1-.51-.88V35c0-.66.47-1,1.26-1a1.54,1.54,0,0,1,.63.12l.35-.31c.1-.09.15-.09.25,0l0,0c.1.09.1.14,0,.24l-.27.28a.91.91,0,0,1,.26.68Zm-1.85,1.86a.53.53,0,0,0-.29.5c0,.4.23.5.88.5s.88-.1.88-.51-.22-.45-.88-.45A4,4,0,0,1,96.54,36.94ZM97.93,35c0-.43-.27-.64-.8-.64s-.81.21-.81.64v.08c0,.43.2.65.81.65s.8-.22.8-.65Z"/><path class="cls-3" d="M97.13,38.34a1.89,1.89,0,0,1-1-.2.76.76,0,0,1-.29-.65.72.72,0,0,1,.33-.65.41.41,0,0,1-.24-.4q0-.4.48-.48a.86.86,0,0,1-.5-.88V35a1,1,0,0,1,.34-.78,1.45,1.45,0,0,1,.93-.28,1.54,1.54,0,0,1,.63.12l.35-.3c.1-.1.15-.1.25,0l0,0c.06.05.08.08.08.12s0,.07-.08.13l-.27.27a.88.88,0,0,1,.27.68v.08c0,.7-.43,1.06-1.27,1.06a2.81,2.81,0,0,0-.64,0,.18.18,0,0,0-.14.18c0,.08.05.13.15.16a3.66,3.66,0,0,0,.63,0,2,2,0,0,1,1.05.19.68.68,0,0,1,.29.65.8.8,0,0,1-.3.73A2,2,0,0,1,97.13,38.34Zm0-4.38c-.78,0-1.25.39-1.25,1v.08a.86.86,0,0,0,.5.88h0c-.33.05-.49.2-.49.47a.43.43,0,0,0,.25.4h0a.7.7,0,0,0-.34.64.76.76,0,0,0,.28.64,2,2,0,0,0,1,.2,1.9,1.9,0,0,0,1-.2.82.82,0,0,0,.3-.72.68.68,0,0,0-.29-.64,2,2,0,0,0-1-.19,3,3,0,0,1-.64,0,.18.18,0,0,1-.15-.17.18.18,0,0,1,.15-.19,2.74,2.74,0,0,1,.64,0,1.49,1.49,0,0,0,1-.26,1,1,0,0,0,.31-.79V35a.85.85,0,0,0-.27-.67h0l.27-.28c.06,0,.08-.09.08-.12a.16.16,0,0,0-.07-.11l-.05,0c-.09-.09-.14-.09-.24,0l-.35.31h0A1.54,1.54,0,0,0,97.13,34Zm0,4c-.68,0-.88-.12-.88-.51a.49.49,0,0,1,.29-.5h0a4.68,4.68,0,0,0,.59,0c.66,0,.89.07.89.46S97.8,38,97.13,38Zm-.59-1a.5.5,0,0,0-.28.49c0,.38.2.5.87.5s.87-.12.87-.51-.21-.45-.87-.45A4.68,4.68,0,0,1,96.54,37Zm.59-1.21c-.58,0-.81-.19-.81-.66V35c0-.44.26-.65.81-.65s.81.22.81.65v.08C97.94,35.55,97.71,35.74,97.13,35.74Zm0-1.38c-.54,0-.8.21-.8.64v.08c0,.46.23.65.8.65s.8-.19.8-.65V35C97.93,34.58,97.66,34.36,97.13,34.36Z"/><path class="cls-3" d="M103.77,33.5c0,.13,0,.17-.17.17h-.36V35.8c0,.85-.45,1.27-1.34,1.27s-1.33-.42-1.33-1.27v-.57A1.12,1.12,0,0,1,101.83,34a1,1,0,0,1,1,.44v-.72H102c-.14,0-.17,0-.17-.17v0c0-.13,0-.17.17-.17h.83V33c0-.17,0-.2.19-.2H103c.15,0,.2,0,.2.2v.33h.36c.13,0,.17,0,.17.17ZM101,35.79c0,.59.2.85.87.85s.88-.26.88-.85v-.56c0-.59-.21-.85-.88-.85s-.87.26-.87.85Z"/><path class="cls-3" d="M101.9,37.08a1.41,1.41,0,0,1-1-.32,1.27,1.27,0,0,1-.33-1v-.57a1.31,1.31,0,0,1,.32-1,1.26,1.26,0,0,1,1-.33,1,1,0,0,1,.94.43v-.69H102c-.14,0-.18,0-.18-.18v0c0-.14,0-.18.18-.18h.82V33c0-.17,0-.21.2-.21H103c.15,0,.2,0,.2.21v.32h.36c.13,0,.18,0,.18.18v0c0,.13,0,.18-.18.18h-.36V35.8C103.24,36.65,102.79,37.08,101.9,37.08ZM101.83,34a1.27,1.27,0,0,0-.94.31,1.34,1.34,0,0,0-.31,1v.57a1.24,1.24,0,0,0,.32,1,1.38,1.38,0,0,0,1,.31,1.41,1.41,0,0,0,1-.31,1.26,1.26,0,0,0,.33-1V33.66h.37c.12,0,.17,0,.17-.16v0c0-.12,0-.16-.17-.16h-.37V33c0-.17,0-.19-.19-.19H103c-.16,0-.18,0-.18.19v.34H102c-.14,0-.16,0-.16.16v0c0,.12,0,.16.16.16h.84v.76l0,0A1,1,0,0,0,101.83,34Zm.07,2.69c-.64,0-.88-.23-.88-.86v-.56c0-.62.25-.86.88-.86s.89.24.89.86v.56C102.79,36.41,102.54,36.65,101.9,36.65Zm0-2.26c-.62,0-.87.23-.87.84v.56c0,.62.24.84.87.84s.87-.22.87-.84v-.56C102.77,34.61,102.54,34.39,101.9,34.39Z"/><path class="cls-3" d="M103.85,35.79v-.56c0-.85.44-1.28,1.34-1.28.67,0,1.06.23,1.23.66.09,0,.18-.16.18-.48,0-.09,0-.12.14-.12h.1c.11,0,.13,0,.13.12,0,.49-.19.73-.48.81a1.32,1.32,0,0,1,0,.29v.56c0,.86-.44,1.28-1.32,1.28S103.85,36.63,103.85,35.79Zm2.21-.56c0-.59-.21-.85-.87-.85s-.89.26-.89.85v.56c0,.59.23.85.89.85s.87-.26.87-.85Z"/><path class="cls-3" d="M105.19,37.08c-.92,0-1.35-.41-1.35-1.29v-.56a1.31,1.31,0,0,1,.34-1,1.42,1.42,0,0,1,1-.32c.66,0,1,.21,1.23.66.12-.05.17-.21.17-.47,0-.1,0-.13.15-.13h.1c.11,0,.14,0,.14.13,0,.44-.16.72-.48.82a2.46,2.46,0,0,1,0,.28v.56A1.16,1.16,0,0,1,105.19,37.08Zm0-3.12a1.39,1.39,0,0,0-1,.31,1.27,1.27,0,0,0-.33,1v.56c0,.87.42,1.27,1.33,1.27a1.4,1.4,0,0,0,1-.31,1.27,1.27,0,0,0,.33-1v-.56a2.48,2.48,0,0,0,0-.29h0q.48-.15.48-.81c0-.09,0-.11-.13-.11h-.1c-.1,0-.13,0-.13.11,0,.27-.06.43-.19.49h0C106.23,34.17,105.85,34,105.19,34Zm0,2.69c-.64,0-.89-.24-.89-.86v-.56c0-.62.24-.86.89-.86s.87.24.87.86v.56C106.06,36.42,105.83,36.65,105.19,36.65Zm0-2.26c-.64,0-.88.22-.88.84v.56c0,.61.25.84.88.84s.86-.22.86-.84v-.56C106.05,34.61,105.82,34.39,105.19,34.39Z"/><path class="cls-3" d="M107.62,36.82c0,.16,0,.19-.2.19h-.07c-.15,0-.19,0-.19-.19V35.09c0-.76.43-1.14,1.27-1.14s1.27.4,1.27,1.14v1.73c0,.16,0,.19-.2.19h-.07c-.17,0-.2,0-.2-.19V35.09c0-.49-.18-.71-.8-.71s-.81.23-.81.71Z"/><path class="cls-3" d="M109.5,37h-.07c-.17,0-.2,0-.2-.2V35.09c0-.51-.22-.7-.8-.7s-.81.19-.81.7v1.73c0,.16,0,.2-.2.2h-.07c-.15,0-.2,0-.2-.2V35.09c0-.76.43-1.15,1.28-1.15a1.36,1.36,0,0,1,1,.3,1.08,1.08,0,0,1,.3.85v1.73C109.7,37,109.67,37,109.5,37Zm-1.07-2.65c.59,0,.81.2.81.72v1.73c0,.16,0,.18.19.18h.07c.16,0,.19,0,.19-.18V35.09a1.11,1.11,0,0,0-.29-.84,1.36,1.36,0,0,0-1-.29,1.38,1.38,0,0,0-1,.28,1.09,1.09,0,0,0-.32.85v1.73c0,.16,0,.18.19.18h.07c.16,0,.19,0,.19-.18V35.09C107.61,34.57,107.84,34.37,108.43,34.37Z"/><path class="cls-3" d="M114.48,35.08c0,.7-.41,1.06-1.25,1.06a3,3,0,0,0-.65,0,.18.18,0,0,0-.15.19c0,.08,0,.14.16.17a4.14,4.14,0,0,0,.64,0,2,2,0,0,1,1,.19.71.71,0,0,1,.29.65.82.82,0,0,1-.3.72,1.84,1.84,0,0,1-1,.21,1.94,1.94,0,0,1-1.06-.21.75.75,0,0,1-.28-.64.71.71,0,0,1,.34-.65.4.4,0,0,1-.25-.4c0-.27.16-.43.49-.48a.85.85,0,0,1-.51-.88V35c0-.66.47-1,1.27-1a1.52,1.52,0,0,1,.62.12l.35-.31c.1-.09.15-.09.25,0l0,0c.1.09.1.14,0,.24l-.27.28a.91.91,0,0,1,.26.68Zm-1.85,1.86a.53.53,0,0,0-.29.5c0,.4.23.5.89.5s.87-.1.87-.51-.22-.45-.87-.45A4,4,0,0,1,112.63,36.94ZM114,35c0-.43-.26-.64-.79-.64s-.81.21-.81.64v.08c0,.43.19.65.81.65s.79-.22.79-.65Z"/><path class="cls-3" d="M113.23,38.34a1.93,1.93,0,0,1-1.06-.2.76.76,0,0,1-.29-.65.71.71,0,0,1,.34-.65.4.4,0,0,1-.25-.4q0-.4.48-.48a.86.86,0,0,1-.5-.88V35a1,1,0,0,1,.34-.78,1.46,1.46,0,0,1,.94-.28,1.52,1.52,0,0,1,.62.12l.35-.3c.1-.1.15-.1.25,0l0,0c.06.05.08.08.08.12s0,.07-.08.13l-.26.27a.91.91,0,0,1,.26.68v.08c0,.7-.43,1.06-1.26,1.06a2.85,2.85,0,0,0-.65,0,.18.18,0,0,0-.14.18c0,.08,0,.13.15.16a3.72,3.72,0,0,0,.64,0,2,2,0,0,1,1,.19.69.69,0,0,1,.3.65.81.81,0,0,1-.31.73A2,2,0,0,1,113.23,38.34Zm0-4.38c-.79,0-1.26.39-1.26,1v.08a.86.86,0,0,0,.5.88h0c-.33.05-.48.2-.48.47a.42.42,0,0,0,.24.4h0a.7.7,0,0,0-.34.64.74.74,0,0,0,.29.64,2.8,2.8,0,0,0,2.08,0,.81.81,0,0,0,.29-.72.68.68,0,0,0-.29-.64,1.92,1.92,0,0,0-1-.19,2.88,2.88,0,0,1-.64,0c-.11,0-.16-.09-.16-.17a.18.18,0,0,1,.15-.19,2.79,2.79,0,0,1,.65,0,1.48,1.48,0,0,0,.94-.26,1,1,0,0,0,.31-.79V35a.85.85,0,0,0-.27-.67h0l.28-.28a.19.19,0,0,0,.07-.12.16.16,0,0,0-.07-.11l0,0c-.1-.1-.14-.09-.25,0l-.35.31h0A1.52,1.52,0,0,0,113.23,34Zm0,4c-.69,0-.89-.12-.89-.51a.49.49,0,0,1,.29-.5h0a4.75,4.75,0,0,0,.6,0c.65,0,.88.07.88.46S113.81,38,113.23,38Zm-.6-1a.5.5,0,0,0-.28.49c0,.38.2.5.88.5s.86-.12.86-.51-.21-.45-.86-.45A4.75,4.75,0,0,1,112.63,37Zm.6-1.21c-.58,0-.82-.19-.82-.66V35c0-.44.27-.65.82-.65s.8.22.8.65v.08C114,35.55,113.8,35.74,113.23,35.74Zm0-1.38c-.55,0-.81.21-.81.64v.08c0,.46.23.65.81.65s.79-.19.79-.65V35C114,34.58,113.75,34.36,113.23,34.36Z"/><path class="cls-3" d="M115.7,33.07a.29.29,0,0,1-.29.3.3.3,0,0,1-.31-.3.31.31,0,0,1,.31-.3A.3.3,0,0,1,115.7,33.07Zm-.52,1.13c0-.15,0-.19.19-.19h.07c.15,0,.19,0,.19.19v2.62c0,.16,0,.19-.19.19h-.07c-.17,0-.19,0-.19-.19Z"/><path class="cls-3" d="M115.44,37h-.07c-.17,0-.2,0-.2-.2V34.2c0-.15,0-.2.2-.2h.07c.15,0,.2,0,.2.2v2.62C115.64,37,115.59,37,115.44,37Zm-.07-3c-.16,0-.19,0-.19.18v2.62c0,.16,0,.18.19.18h.07c.14,0,.18,0,.18-.18V34.2c0-.14,0-.18-.18-.18Zm0-.65a.3.3,0,1,1,0-.6.3.3,0,1,1,0,.6Zm0-.59a.29.29,0,1,0,0,.58.29.29,0,0,0,0-.58Z"/><path class="cls-3" d="M118.7,36.11c0,.68-.39,1-1.27,1-.7,0-1.14-.28-1.14-.91s.41-.89,1.24-.89h.72V34.9c0-.41-.29-.55-.8-.55a3.06,3.06,0,0,0-.67.07c-.15,0-.2,0-.2-.15v-.05c0-.14,0-.18.19-.21a3.37,3.37,0,0,1,.66-.06c.85,0,1.27.32,1.27.95Zm-.45-.48h-.72c-.54,0-.79.15-.79.53s.23.52.69.52.82-.13.82-.59Zm-.72-2c-.11,0-.12,0-.14-.12s.09-.24.27-.43a.23.23,0,0,0,.08-.14c0-.11,0-.16-.11-.16a.58.58,0,0,0-.27,0c-.07,0-.12,0-.16-.06l0-.05c0-.09,0-.13.09-.16a.85.85,0,0,1,.36-.07.4.4,0,0,1,.43.45c0,.26-.36.37-.37.57a.14.14,0,0,1-.12.12Z"/><path class="cls-3" d="M117.43,37.08c-.75,0-1.15-.32-1.15-.92s.38-.9,1.25-.9h.71V34.9c0-.38-.24-.54-.79-.54a3.26,3.26,0,0,0-.67.06c-.08,0-.13,0-.16,0s0-.07,0-.14v-.05c0-.14,0-.18.19-.22a3.23,3.23,0,0,1,.66-.06c.85,0,1.28.33,1.28,1v1.21C118.71,36.78,118.31,37.08,117.43,37.08Zm.1-1.8c-.86,0-1.24.27-1.24.88s.39.9,1.14.9a1.62,1.62,0,0,0,1-.22.83.83,0,0,0,.31-.73V34.9a.84.84,0,0,0-.32-.71,1.64,1.64,0,0,0-.95-.23,3.23,3.23,0,0,0-.66.06c-.15,0-.18.06-.18.2v.05c0,.07,0,.11,0,.13s.07,0,.15,0a3.13,3.13,0,0,1,.67-.07c.56,0,.8.17.8.56v.38Zm-.1,1.4c-.47,0-.69-.17-.69-.52s.24-.54.79-.54h.72v.47C118.25,36.58,117.94,36.68,117.43,36.68Zm.1-1c-.55,0-.78.15-.78.52s.22.51.68.51.81-.16.81-.58v-.45Zm0-2c-.12,0-.13,0-.15-.12s.06-.22.19-.36l.09-.09a.19.19,0,0,0,.07-.13c0-.11,0-.15-.1-.16h0a.53.53,0,0,0-.23.06c-.08,0-.13,0-.18-.07l0-.05c0-.1,0-.13.09-.16a.85.85,0,0,1,.36-.07.48.48,0,0,1,.32.11.45.45,0,0,1,.11.34.51.51,0,0,1-.2.34.4.4,0,0,0-.17.23.13.13,0,0,1-.12.12Zm.07-.87h0c.06,0,.12,0,.12.17a.23.23,0,0,1-.08.14l-.09.09c-.13.13-.2.2-.19.34s0,.11.14.11h0a.13.13,0,0,0,.11-.11.42.42,0,0,1,.17-.24A.47.47,0,0,0,118,33a.44.44,0,0,0-.11-.33.43.43,0,0,0-.31-.11.85.85,0,0,0-.36.07c-.07,0-.11.06-.08.15l0,0c0,.09.09.09.16.07A.53.53,0,0,1,117.6,32.81Z"/><path class="cls-3" d="M119.81,36.82c0,.16,0,.19-.2.19h-.07c-.15,0-.19,0-.19-.19V35.09c0-.76.43-1.14,1.27-1.14s1.27.4,1.27,1.14v1.73c0,.16,0,.19-.2.19h-.07c-.17,0-.2,0-.2-.19V35.09c0-.49-.18-.71-.8-.71s-.81.23-.81.71Z"/><path class="cls-3" d="M121.69,37h-.07c-.17,0-.2,0-.2-.2V35.09c0-.51-.22-.7-.8-.7s-.81.19-.81.7v1.73c0,.16,0,.2-.2.2h-.07c-.15,0-.2,0-.2-.2V35.09c0-.76.43-1.15,1.28-1.15a1.36,1.36,0,0,1,1,.3,1.08,1.08,0,0,1,.3.85v1.73C121.89,37,121.86,37,121.69,37Zm-1.07-2.65c.59,0,.81.2.81.72v1.73c0,.16,0,.18.19.18h.07c.16,0,.19,0,.19-.18V35.09a1.11,1.11,0,0,0-.29-.84,1.36,1.36,0,0,0-1-.29,1.38,1.38,0,0,0-1,.28,1.09,1.09,0,0,0-.32.85v1.73c0,.16.05.18.19.18h.07c.16,0,.19,0,.19-.18V35.09C119.8,34.57,120,34.37,120.62,34.37Z"/><path class="cls-3" d="M124.28,33c0-.17,0-.2.2-.2h.07c.16,0,.19,0,.19.2v1.41a1.07,1.07,0,0,1,1-.41c.74,0,1.12.35,1.12,1.07v1.8c0,.16,0,.19-.19.19h-.08c-.16,0-.19,0-.19-.19V35.07c0-.48-.22-.69-.78-.69s-.84.23-.84.79v1.65c0,.16,0,.19-.19.19h-.07c-.16,0-.2,0-.2-.19Z"/><path class="cls-3" d="M126.63,37h-.08c-.16,0-.2,0-.2-.2V35.07c0-.49-.22-.68-.77-.68s-.83.23-.83.78v1.65c0,.16,0,.2-.2.2h-.07c-.15,0-.2,0-.2-.2V33c0-.18,0-.21.2-.21h.07c.16,0,.2,0,.2.21v1.39a1.08,1.08,0,0,1,1-.4c.75,0,1.13.36,1.13,1.08v1.8C126.83,37,126.79,37,126.63,37Zm-1-2.65c.56,0,.79.21.79.7v1.75c0,.16,0,.18.18.18h.08c.16,0,.18,0,.18-.18V35c0-.71-.37-1.06-1.11-1.06a1.07,1.07,0,0,0-1,.41h0V33c0-.16,0-.19-.18-.19h-.07c-.15,0-.19,0-.19.19v3.87c0,.16,0,.18.19.18h.07c.15,0,.18,0,.18-.18V35.17C124.73,34.61,125,34.37,125.58,34.37Z"/><path class="cls-3" d="M127.47,35.79v-.56c0-.85.44-1.28,1.34-1.28a1.17,1.17,0,0,1,1.23.66c.09,0,.18-.16.18-.48,0-.09,0-.12.14-.12h.1c.11,0,.13,0,.13.12,0,.49-.2.73-.48.81a1.32,1.32,0,0,1,0,.29v.56c0,.86-.44,1.28-1.32,1.28S127.47,36.63,127.47,35.79Zm2.21-.56c0-.59-.21-.85-.87-.85s-.89.26-.89.85v.56c0,.59.22.85.89.85s.87-.26.87-.85Z"/><path class="cls-3" d="M128.81,37.08c-.92,0-1.35-.41-1.35-1.29v-.56a1.31,1.31,0,0,1,.34-1,1.42,1.42,0,0,1,1-.32c.66,0,1.05.21,1.23.66.12-.05.17-.21.17-.47,0-.1,0-.13.15-.13h.1c.11,0,.14,0,.14.13,0,.44-.16.72-.48.82a2.46,2.46,0,0,1,0,.28v.56A1.16,1.16,0,0,1,128.81,37.08Zm0-3.12a1.39,1.39,0,0,0-1,.31,1.27,1.27,0,0,0-.33,1v.56c0,.87.42,1.27,1.33,1.27a1.4,1.4,0,0,0,1-.31,1.27,1.27,0,0,0,.33-1v-.56a2.64,2.64,0,0,0,0-.29h0c.32-.1.47-.37.47-.81,0-.09,0-.11-.12-.11h-.1c-.1,0-.13,0-.13.11,0,.27-.06.43-.19.49h0C129.85,34.17,129.47,34,128.81,34Zm0,2.69c-.64,0-.89-.24-.89-.86v-.56c0-.62.24-.86.89-.86s.87.24.87.86v.56C129.68,36.42,129.45,36.65,128.81,36.65Zm0-2.26c-.64,0-.88.22-.88.84v.56c0,.61.25.84.88.84s.86-.22.86-.84v-.56C129.67,34.61,129.44,34.39,128.81,34.39Z"/><path class="cls-3" d="M131.24,36.82c0,.16,0,.19-.2.19H131c-.15,0-.19,0-.19-.19V35.09c0-.76.42-1.14,1.27-1.14s1.27.4,1.27,1.14v1.73c0,.16,0,.19-.2.19h-.07c-.17,0-.2,0-.2-.19V35.09c0-.49-.18-.71-.8-.71s-.81.23-.81.71Z"/><path class="cls-3" d="M133.12,37h-.07c-.17,0-.2,0-.2-.2V35.09c0-.51-.22-.7-.8-.7s-.81.19-.81.7v1.73c0,.16,0,.2-.2.2H131c-.15,0-.2,0-.2-.2V35.09c0-.76.43-1.15,1.28-1.15a1.36,1.36,0,0,1,1,.3,1.08,1.08,0,0,1,.3.85v1.73C133.32,37,133.29,37,133.12,37Zm-1.07-2.65c.59,0,.81.2.81.72v1.73c0,.16,0,.18.19.18h.07c.16,0,.19,0,.19-.18V35.09a1.11,1.11,0,0,0-.29-.84,1.36,1.36,0,0,0-1-.29,1.38,1.38,0,0,0-1,.28,1.09,1.09,0,0,0-.32.85v1.73c0,.16.05.18.19.18H131c.16,0,.19,0,.19-.18V35.09C131.23,34.57,131.46,34.37,132.05,34.37Z"/></svg>